<?xml version="1.0" encoding="UTF-8"?>
<svg xmlns="http://www.w3.org/2000/svg" xmlns:xlink="http://www.w3.org/1999/xlink" width="13px" height="13px" viewBox="0 0 13 13" version="1.1">
<g id="surface1">
<path style=" stroke:none;fill-rule:nonzero;fill:rgb(92.54902%,93.72549%,94.509804%);fill-opacity:1;" d="M 12.59375 10.96875 L 6.90625 10.96875 C 6.683594 10.96875 6.5 10.789062 6.5 10.5625 C 6.5 10.335938 6.5 2.660156 6.5 2.4375 C 6.5 2.214844 6.683594 2.03125 6.90625 2.03125 L 12.59375 2.03125 C 12.816406 2.03125 13 2.214844 13 2.4375 L 13 10.5625 C 13 10.789062 12.816406 10.96875 12.59375 10.96875 Z M 12.59375 10.96875 "/>
<path style=" stroke:none;fill-rule:nonzero;fill:rgb(9.803922%,46.27451%,82.352941%);fill-opacity:1;" d="M 10.96875 4.46875 L 6.90625 4.46875 C 6.683594 4.46875 6.5 4.289062 6.5 4.0625 C 6.5 3.835938 6.683594 3.65625 6.90625 3.65625 L 10.96875 3.65625 C 11.191406 3.65625 11.375 3.839844 11.375 4.0625 C 11.375 4.285156 11.191406 4.46875 10.96875 4.46875 Z M 10.96875 4.46875 "/>
<path style=" stroke:none;fill-rule:nonzero;fill:rgb(9.803922%,46.27451%,82.352941%);fill-opacity:1;" d="M 10.96875 6.09375 L 6.90625 6.09375 C 6.683594 6.09375 6.5 5.914062 6.5 5.6875 C 6.5 5.460938 6.683594 5.28125 6.90625 5.28125 L 10.96875 5.28125 C 11.191406 5.28125 11.375 5.464844 11.375 5.6875 C 11.375 5.910156 11.191406 6.09375 10.96875 6.09375 Z M 10.96875 6.09375 "/>
<path style=" stroke:none;fill-rule:nonzero;fill:rgb(9.803922%,46.27451%,82.352941%);fill-opacity:1;" d="M 10.96875 7.71875 L 6.90625 7.71875 C 6.683594 7.71875 6.5 7.539062 6.5 7.3125 C 6.5 7.085938 6.683594 6.90625 6.90625 6.90625 L 10.96875 6.90625 C 11.191406 6.90625 11.375 7.089844 11.375 7.3125 C 11.375 7.535156 11.191406 7.71875 10.96875 7.71875 Z M 10.96875 7.71875 "/>
<path style=" stroke:none;fill-rule:nonzero;fill:rgb(9.803922%,46.27451%,82.352941%);fill-opacity:1;" d="M 10.96875 9.34375 L 6.90625 9.34375 C 6.683594 9.34375 6.5 9.164062 6.5 8.9375 C 6.5 8.710938 6.683594 8.53125 6.90625 8.53125 L 10.96875 8.53125 C 11.191406 8.53125 11.375 8.714844 11.375 8.9375 C 11.375 9.160156 11.191406 9.34375 10.96875 9.34375 Z M 10.96875 9.34375 "/>
<path style=" stroke:none;fill-rule:nonzero;fill:rgb(8.235294%,39.607843%,75.294118%);fill-opacity:1;" d="M 7.164062 0.5 C 7.074219 0.421875 6.949219 0.390625 6.832031 0.414062 L 0.332031 1.632812 C 0.140625 1.667969 0 1.835938 0 2.03125 L 0 10.96875 C 0 11.164062 0.140625 11.332031 0.332031 11.367188 L 6.832031 12.585938 C 6.855469 12.589844 6.882812 12.59375 6.90625 12.59375 C 7 12.59375 7.09375 12.5625 7.164062 12.5 C 7.257812 12.421875 7.3125 12.308594 7.3125 12.1875 L 7.3125 0.8125 C 7.3125 0.691406 7.257812 0.578125 7.164062 0.5 Z M 7.164062 0.5 "/>
<path style=" stroke:none;fill-rule:nonzero;fill:rgb(98.039216%,98.039216%,98.039216%);fill-opacity:1;" d="M 5.277344 8.578125 C 5.257812 8.761719 5.113281 8.910156 4.925781 8.933594 C 4.910156 8.9375 4.890625 8.9375 4.875 8.9375 C 4.707031 8.9375 4.554688 8.832031 4.496094 8.675781 L 3.65625 6.4375 L 2.816406 8.675781 C 2.753906 8.847656 2.582031 8.953125 2.394531 8.933594 C 2.210938 8.914062 2.0625 8.773438 2.035156 8.589844 L 1.628906 5.746094 C 1.597656 5.523438 1.75 5.316406 1.972656 5.285156 C 2.195312 5.253906 2.402344 5.40625 2.433594 5.628906 L 2.613281 6.902344 L 3.273438 5.136719 C 3.394531 4.820312 3.917969 4.820312 4.035156 5.136719 L 4.660156 6.796875 L 4.878906 4.828125 C 4.902344 4.605469 5.109375 4.445312 5.324219 4.46875 C 5.550781 4.496094 5.710938 4.695312 5.683594 4.917969 Z M 5.277344 8.578125 "/>
</g>
</svg>
