<?xml version="1.0" encoding="UTF-8"?>
<svg xmlns="http://www.w3.org/2000/svg" xmlns:xlink="http://www.w3.org/1999/xlink" width="40px" height="40px" viewBox="0 0 40 40" version="1.1">
<g id="surface1">
<path style=" stroke:none;fill-rule:nonzero;fill:rgb(92.54902%,93.72549%,94.509804%);fill-opacity:1;" d="M 38.75 33.75 L 21.25 33.75 C 20.558594 33.75 20 33.191406 20 32.5 C 20 31.808594 20 8.191406 20 7.5 C 20 6.808594 20.558594 6.25 21.25 6.25 L 38.75 6.25 C 39.441406 6.25 40 6.808594 40 7.5 L 40 32.5 C 40 33.191406 39.441406 33.75 38.75 33.75 Z M 38.75 33.75 "/>
<path style=" stroke:none;fill-rule:nonzero;fill:rgb(9.803922%,46.27451%,82.352941%);fill-opacity:1;" d="M 33.75 13.75 L 21.25 13.75 C 20.558594 13.75 20 13.191406 20 12.5 C 20 11.808594 20.558594 11.25 21.25 11.25 L 33.75 11.25 C 34.441406 11.25 35 11.808594 35 12.5 C 35 13.191406 34.441406 13.75 33.75 13.75 Z M 33.75 13.75 "/>
<path style=" stroke:none;fill-rule:nonzero;fill:rgb(9.803922%,46.27451%,82.352941%);fill-opacity:1;" d="M 33.75 18.75 L 21.25 18.75 C 20.558594 18.75 20 18.191406 20 17.5 C 20 16.808594 20.558594 16.25 21.25 16.25 L 33.75 16.25 C 34.441406 16.25 35 16.808594 35 17.5 C 35 18.191406 34.441406 18.75 33.75 18.75 Z M 33.75 18.75 "/>
<path style=" stroke:none;fill-rule:nonzero;fill:rgb(9.803922%,46.27451%,82.352941%);fill-opacity:1;" d="M 33.75 23.75 L 21.25 23.75 C 20.558594 23.75 20 23.191406 20 22.5 C 20 21.808594 20.558594 21.25 21.25 21.25 L 33.75 21.25 C 34.441406 21.25 35 21.808594 35 22.5 C 35 23.191406 34.441406 23.75 33.75 23.75 Z M 33.75 23.75 "/>
<path style=" stroke:none;fill-rule:nonzero;fill:rgb(9.803922%,46.27451%,82.352941%);fill-opacity:1;" d="M 33.75 28.75 L 21.25 28.75 C 20.558594 28.75 20 28.191406 20 27.5 C 20 26.808594 20.558594 26.25 21.25 26.25 L 33.75 26.25 C 34.441406 26.25 35 26.808594 35 27.5 C 35 28.191406 34.441406 28.75 33.75 28.75 Z M 33.75 28.75 "/>
<path style=" stroke:none;fill-rule:nonzero;fill:rgb(8.235294%,39.607843%,75.294118%);fill-opacity:1;" d="M 22.046875 1.539062 C 21.761719 1.300781 21.378906 1.199219 21.019531 1.273438 L 1.019531 5.023438 C 0.429688 5.132812 0 5.648438 0 6.25 L 0 33.75 C 0 34.351562 0.425781 34.867188 1.019531 34.976562 L 21.019531 38.726562 C 21.097656 38.742188 21.171875 38.75 21.25 38.75 C 21.539062 38.75 21.824219 38.648438 22.046875 38.460938 C 22.335938 38.226562 22.5 37.871094 22.5 37.5 L 22.5 2.5 C 22.5 2.128906 22.335938 1.777344 22.046875 1.539062 Z M 22.046875 1.539062 "/>
<path style=" stroke:none;fill-rule:nonzero;fill:rgb(98.039216%,98.039216%,98.039216%);fill-opacity:1;" d="M 16.242188 26.390625 C 16.175781 26.960938 15.726562 27.421875 15.15625 27.492188 C 15.101562 27.496094 15.050781 27.5 15 27.5 C 14.484375 27.5 14.015625 27.179688 13.828125 26.691406 L 11.25 19.808594 L 8.671875 26.691406 C 8.46875 27.226562 7.945312 27.554688 7.363281 27.492188 C 6.796875 27.433594 6.34375 26.992188 6.261719 26.425781 L 5.011719 17.675781 C 4.914062 16.996094 5.390625 16.359375 6.074219 16.261719 C 6.757812 16.164062 7.390625 16.640625 7.488281 17.324219 L 8.046875 21.234375 L 10.078125 15.808594 C 10.441406 14.835938 12.050781 14.835938 12.421875 15.808594 L 14.335938 20.914062 L 15.007812 14.859375 C 15.085938 14.175781 15.71875 13.683594 16.386719 13.753906 C 17.074219 13.835938 17.566406 14.453125 17.492188 15.136719 Z M 16.242188 26.390625 "/>
</g>
</svg>
